<svg id="decor-bottom" xmlns="http://www.w3.org/2000/svg" xmlns:xlink="http://www.w3.org/1999/xlink" width="460" height="730.46" viewBox="0 0 460 730.46">
  <defs>
    <clipPath id="clip-path">
      <rect id="Rectangle_127" data-name="Rectangle 127" width="460" height="730.46" fill="none"/>
    </clipPath>
  </defs>
  <g id="Group_152" data-name="Group 152" clip-path="url(#clip-path)">
    <path id="Path_1355" data-name="Path 1355" d="M482.564,477.1c39.036-42.374,39.036-111.323,0-153.7l3.637-3.948,0,.005,70.233,75.82c43.408,47.114,52.789,120.6,22.826,178.707l-.177.335-31.6,34.3H361.41Zm92.383,93.825c28.639-55.885,19.557-126.439-22.132-171.7l-47.389-51.146c20.278,42.96,13.866,97.044-19.221,132.966L373.811,603.042H545.361Z" transform="translate(-248.295 132.137)" fill="#003b56"/>
    <path id="Path_1356" data-name="Path 1356" d="M838.634,1126.9c28.848-55.935,19.815-126.68-21.965-172.037l-529.162-574.4-.753-.812V177.785L929.013,874.956c41.036,44.555,41.036,117.038,0,161.588l-99.448,107.952ZM291.9,377.337,820.3,950.923c39.721,43.113,50.944,108.311,29.6,163.6l75.475-81.923c39.032-42.379,39.032-111.323,0-153.7L291.9,191.257Z" transform="translate(-512.154 -423.506)" fill="#a95939"/>
  </g>
</svg>
