<svg id="decor-top" xmlns="http://www.w3.org/2000/svg" xmlns:xlink="http://www.w3.org/1999/xlink" width="460" height="730.46" viewBox="0 0 460 730.46">
  <defs>
    <clipPath id="clip-path">
      <rect id="Rectangle_127" data-name="Rectangle 127" width="460" height="730.46" fill="none"/>
    </clipPath>
  </defs>
  <g id="Group_152" data-name="Group 152" clip-path="url(#clip-path)">
    <path id="Path_1355" data-name="Path 1355" d="M475.53,450.978c-39.036,42.374-39.036,111.323,0,153.7l-3.637,3.948,0-.005L401.656,532.8c-43.408-47.114-52.789-120.6-22.826-178.707l.177-.335,31.6-34.3H596.684Zm-92.383-93.825c-28.639,55.885-19.557,126.439,22.132,171.7L452.667,580c-20.278-42.96-13.866-97.044,19.221-132.966L584.282,325.037H412.733Z" transform="translate(-249.799 -329.755)" fill="#003b56"/>
    <path id="Path_1356" data-name="Path 1356" d="M407.911,195.377c-28.848,55.935-19.815,126.68,21.965,172.037l529.162,574.4.753.812v201.865L317.532,447.324c-41.036-44.555-41.036-117.038,0-161.588L416.98,177.785ZM954.644,944.943l-528.4-573.587c-39.721-43.113-50.944-108.311-29.6-163.6l-75.475,81.923c-39.032,42.379-39.032,111.323,0,153.7l633.48,687.647Z" transform="translate(-274.391 -168.313)" fill="#a95939"/>
  </g>
</svg>
