<svg id="decor-news-top" xmlns="http://www.w3.org/2000/svg" xmlns:xlink="http://www.w3.org/1999/xlink" width="318" height="504.971" viewBox="0 0 318 504.971">
  <defs>
    <clipPath id="clip-path">
      <rect id="Rectangle_127" data-name="Rectangle 127" width="318" height="504.971" fill="none"/>
    </clipPath>
  </defs>
  <g id="Group_152" data-name="Group 152" clip-path="url(#clip-path)">
    <path id="Path_1355" data-name="Path 1355" d="M440.3,410.378c-26.986,29.294-26.986,76.958,0,106.252l-2.514,2.729,0,0L389.232,466.94c-30.008-32.57-36.493-83.372-15.78-123.541l.122-.231,21.842-23.713H524.056Zm-63.865-64.862c-19.8,38.634-13.52,87.408,15.3,118.7l32.76,35.357c-14.018-29.7-9.586-67.087,13.288-91.92l77.7-84.335H396.89Z" transform="translate(-284.253 -326.576)" fill="#003b56"/>
    <path id="Path_1356" data-name="Path 1356" d="M370.511,189.946c-19.943,38.668-13.7,87.575,15.184,118.93L751.507,705.964l.52.562v139.55l-444-481.957c-28.368-30.8-28.368-80.909,0-111.706l68.749-74.627ZM748.47,708.125,383.184,311.6c-27.459-29.8-35.218-74.876-20.466-113.1l-52.176,56.634c-26.983,29.3-26.983,76.958,0,106.252L748.47,836.763Z" transform="translate(-278.208 -171.237)" fill="#a95939"/>
  </g>
</svg>
