<svg xmlns="http://www.w3.org/2000/svg" width="139.54" height="64.088" viewBox="0 0 139.54 64.088">
  <g id="Logo" transform="translate(-475.923 -191.45)">
    <path id="Path_1398" data-name="Path 1398" d="M505.882,253.167a1.951,1.951,0,0,1-1.948,1.948H480.041a1.951,1.951,0,0,1-1.948-1.948v-46a1.951,1.951,0,0,1,1.948-1.948h.793l-1.869-2.027a4.124,4.124,0,0,0-3.042,3.975v46a4.122,4.122,0,0,0,4.118,4.117h23.892a4.122,4.122,0,0,0,4.118-4.117v-1.9h-2.17Z" transform="translate(0 -1.746)" fill="#fff"/>
    <path id="Path_1399" data-name="Path 1399" d="M492.231,191.45a20.49,20.49,0,0,1,14.177,5.665c.132.126.256.26.39.386.088.082.09.149,0,.237q-.7.693-1.4,1.4c-.1.106-.176.08-.272-.011-.529-.5-1.062-1-1.641-1.452a18.273,18.273,0,0,0-3.6-2.206,18.007,18.007,0,0,0-4.267-1.368,18.39,18.39,0,0,0-4.559-.264,17.376,17.376,0,0,0-3.957.712,18.1,18.1,0,0,0-5.329,2.613,19.526,19.526,0,0,0-2.292,1.936c-.139.136-.221.132-.353-.005q-.64-.661-1.3-1.3c-.135-.13-.124-.209,0-.335a20.569,20.569,0,0,1,11.316-5.755,21.066,21.066,0,0,1,3.081-.245" transform="translate(-0.27 0)" fill="#fff"/>
    <path id="Path_1400" data-name="Path 1400" d="M493.01,198.14a14.685,14.685,0,0,1,7.268,1.923,14.9,14.9,0,0,1,3.149,2.393c.137.135.141.215,0,.351-.438.421-.868.848-1.286,1.287-.152.159-.244.14-.387-.005a12.439,12.439,0,0,0-17.539.022c-.14.137-.22.132-.352-.005-.426-.441-.859-.877-1.3-1.3-.146-.14-.123-.22.008-.35a14.806,14.806,0,0,1,10.44-4.314" transform="translate(-0.973 -0.995)" fill="#fff"/>
    <path id="Path_1401" data-name="Path 1401" d="M500.233,207.643a.4.4,0,0,1-.136.182c-.432.435-.872.864-1.3,1.306-.129.134-.207.123-.334,0a6.461,6.461,0,0,0-3.253-1.8,6.665,6.665,0,0,0-6.246,1.757c-.214.2-.21.2-.42-.007l-1.225-1.224c-.21-.209-.214-.215.007-.427a9.1,9.1,0,0,1,11.522-1,7.911,7.911,0,0,1,1.263,1.048.361.361,0,0,1,.12.167" transform="translate(-1.673 -1.99)" fill="#fff"/>
    <path id="Path_1402" data-name="Path 1402" d="M494.4,211.5a3.412,3.412,0,0,1,2.418,1.017c.1.1.12.174.008.286q-1.15,1.139-2.292,2.29c-.091.091-.159.1-.255.005q-1.15-1.157-2.308-2.306c-.108-.107-.08-.176.013-.27A3.406,3.406,0,0,1,494.4,211.5" transform="translate(-2.377 -2.983)" fill="#fff"/>
    <path id="Path_1403" data-name="Path 1403" d="M504.852,254.791a12.39,12.39,0,0,1-7.983-2.869,11.063,11.063,0,0,1-3.923-7.13l-.147-1.216h24.106l-.146,1.216a11.066,11.066,0,0,1-3.923,7.13,12.392,12.392,0,0,1-7.983,2.869m-9.516-9.044a10.023,10.023,0,0,0,19.031,0Z" transform="translate(-2.511 -7.756)" fill="#a95939"/>
    <path id="Path_1404" data-name="Path 1404" d="M505.817,212.408h-2.108L493.1,237.5h2.356l9.3-22.014,9.3,22.014h2.356Z" transform="translate(-2.556 -3.119)" fill="#a95939"/>
    <path id="Path_1405" data-name="Path 1405" d="M526.855,241.371l0,0-15.1-36.821-1.656,1.646,7.954,19.924,6.447,15.253Z" transform="translate(-5.086 -1.949)" fill="#a95939"/>
    <path id="Path_1406" data-name="Path 1406" d="M521.259,249.192a12.99,12.99,0,0,1-1.153,2.17h5.5a9.7,9.7,0,0,1-9.516,6.874l-.162,0V260.4l.162,0a12.394,12.394,0,0,0,7.983-2.869A11.063,11.063,0,0,0,528,250.407l.147-1.215Z" transform="translate(-5.953 -8.592)" fill="#a95939"/>
    <path id="Path_1407" data-name="Path 1407" d="M541.69,214.693a3.158,3.158,0,0,1-.821-2.317V206.17H542.6v6.2a2.327,2.327,0,0,0,.361,1.381,1.3,1.3,0,0,0,1.124.5,1.262,1.262,0,0,0,1.058-.463,1.943,1.943,0,0,0,.361-1.23,2.668,2.668,0,0,0-.138-.926,5.986,5.986,0,0,0-.439-.9,5.01,5.01,0,0,1-.455-.926,3.191,3.191,0,0,1-.15-1.048h1.721a1.8,1.8,0,0,0,.144.671,7.851,7.851,0,0,0,.409.763,7.413,7.413,0,0,1,.551,1.107,3.439,3.439,0,0,1,.185,1.216,3.049,3.049,0,0,1-.387,1.531,2.785,2.785,0,0,1-1.124,1.082,3.628,3.628,0,0,1-1.747.4,3.2,3.2,0,0,1-2.386-.833" transform="translate(-9.664 -2.19)" fill="#fff"/>
    <path id="Path_1408" data-name="Path 1408" d="M554.154,207.593a9.358,9.358,0,0,0,.881,1.436q.433.609.69,1.052a4.916,4.916,0,0,1,.432,1.019,4.323,4.323,0,0,1,.178,1.277,3.329,3.329,0,0,1-.4,1.654,2.761,2.761,0,0,1-1.144,1.106,4.084,4.084,0,0,1-3.475,0,2.7,2.7,0,0,1-1.13-1.084,3.223,3.223,0,0,1-.395-1.617,4.049,4.049,0,0,1,.565-2.037l1.5.512a3.387,3.387,0,0,0-.21.684,3.665,3.665,0,0,0-.079.748,2.128,2.128,0,0,0,.362,1.308,1.315,1.315,0,0,0,1.123.479,1.288,1.288,0,0,0,1.1-.473,2.075,2.075,0,0,0,.355-1.274,3.408,3.408,0,0,0-.152-1.038,3.834,3.834,0,0,0-.367-.828q-.217-.354-.6-.88a12.2,12.2,0,0,1-.69-1.032,4.963,4.963,0,0,1-.44-1.051,4.835,4.835,0,0,1-.184-1.386h1.774a3.433,3.433,0,0,0,.3,1.422" transform="translate(-10.992 -2.19)" fill="#fff"/>
    <path id="Path_1409" data-name="Path 1409" d="M564.467,206.686a2.673,2.673,0,0,1,.821,2.06v3.366a3.576,3.576,0,0,1-.815,2.465,3.007,3.007,0,0,1-2.366.913,3.43,3.43,0,0,1-1.8-.443,2.824,2.824,0,0,1-1.11-1.218,4.008,4.008,0,0,1-.375-1.769,3.677,3.677,0,0,1,.368-1.649,2.933,2.933,0,0,1,1.038-1.186,2.754,2.754,0,0,1,1.538-.437,2.536,2.536,0,0,1,1.787.7V208.6a1.254,1.254,0,0,0-1.433-1.4,1.672,1.672,0,0,0-.979.24.746.746,0,0,0-.334.639v.106l-1.669.145a1.021,1.021,0,0,1-.053-.319,1.7,1.7,0,0,1,.368-1.07,2.44,2.44,0,0,1,1.051-.743,4.264,4.264,0,0,1,1.59-.273,3.365,3.365,0,0,1,2.372.763m-1.261,6.952a2.925,2.925,0,0,0,.348-1.519v-1.4a1.9,1.9,0,0,0-1.445-.659,1.264,1.264,0,0,0-1.059.531,2.525,2.525,0,0,0-.4,1.538,2.774,2.774,0,0,0,.362,1.54,1.214,1.214,0,0,0,1.084.544,1.2,1.2,0,0,0,1.111-.578" transform="translate(-12.335 -2.154)" fill="#fff"/>
    <path id="Path_1410" data-name="Path 1410" d="M572.386,207.593a9.376,9.376,0,0,0,.882,1.436q.432.609.689,1.052a4.967,4.967,0,0,1,.433,1.019,4.293,4.293,0,0,1,.178,1.277,3.312,3.312,0,0,1-.4,1.654,2.749,2.749,0,0,1-1.143,1.106,4.084,4.084,0,0,1-3.475,0,2.7,2.7,0,0,1-1.13-1.084,3.24,3.24,0,0,1-.394-1.617,4.041,4.041,0,0,1,.565-2.037l1.5.512a3.558,3.558,0,0,0-.21.684,3.787,3.787,0,0,0-.078.748,2.128,2.128,0,0,0,.361,1.308,1.318,1.318,0,0,0,1.124.479,1.289,1.289,0,0,0,1.1-.473,2.069,2.069,0,0,0,.355-1.274,3.435,3.435,0,0,0-.151-1.038,3.835,3.835,0,0,0-.369-.828q-.217-.354-.6-.88a12,12,0,0,1-.69-1.032,4.919,4.919,0,0,1-.44-1.051,4.8,4.8,0,0,1-.184-1.386h1.774a3.447,3.447,0,0,0,.3,1.422" transform="translate(-13.704 -2.19)" fill="#fff"/>
    <path id="Path_1411" data-name="Path 1411" d="M577.272,213.486a9.253,9.253,0,0,1-.216-2.123,7.523,7.523,0,0,1,.315-2.352,3.121,3.121,0,0,1,1.163-1.564,5.667,5.667,0,0,1,2.4-.88,11.959,11.959,0,0,0,2.708-.644l.59,1.091a6.609,6.609,0,0,1-2.811.816,5.051,5.051,0,0,0-1.874.51,1.961,1.961,0,0,0-.873.986,1.782,1.782,0,0,1,1.367-.565,1.816,1.816,0,0,1,1.15.375,1.854,1.854,0,0,1,.637,1.124,1.8,1.8,0,0,1,.71-1.124,2.39,2.39,0,0,1,1.393-.375,2.566,2.566,0,0,1,1.931.763,3.171,3.171,0,0,1,.736,2.286,6.746,6.746,0,0,1-.216,1.768,10.028,10.028,0,0,1-.612,1.635h-1.695a13.359,13.359,0,0,0,.559-1.745,7.154,7.154,0,0,0,.177-1.613q0-1.819-1.17-1.819a.916.916,0,0,0-.717.3,1.4,1.4,0,0,0-.269.954v2.057H581v-2.057a1.356,1.356,0,0,0-.283-.954.941.941,0,0,0-.715-.3.988.988,0,0,0-.882.438,2.536,2.536,0,0,0-.288,1.367,7.166,7.166,0,0,0,.177,1.627,13.09,13.09,0,0,0,.558,1.745h-1.695a8.841,8.841,0,0,1-.6-1.727" transform="translate(-15.048 -2.154)" fill="#fff"/>
    <path id="Path_1412" data-name="Path 1412" d="M599.824,206.93a5.085,5.085,0,0,1,.789,3.138,12.975,12.975,0,0,1-.283,2.909,12.284,12.284,0,0,1-.742,2.237H597.84a12.315,12.315,0,0,0,.742-2.346,13.875,13.875,0,0,0,.243-2.768,4.615,4.615,0,0,0-.394-2.259,1.22,1.22,0,0,0-1.09-.643,1.751,1.751,0,0,0-1.328.614,8.728,8.728,0,0,1,.409,2.911,6.112,6.112,0,0,1-.848,3.665,2.95,2.95,0,0,1-2.491,1.1,2.91,2.91,0,0,1-2.509-1.126,6.188,6.188,0,0,1-.829-3.618,6.371,6.371,0,0,1,.829-3.683,3.379,3.379,0,0,1,4.848-.22,3.084,3.084,0,0,1,2.22-.92,2.619,2.619,0,0,1,2.182,1.007m-5.861,6.948a2.15,2.15,0,0,0,.48-1.086,10.7,10.7,0,0,0,.151-2.031,11.54,11.54,0,0,0-.151-2.112,2.188,2.188,0,0,0-.48-1.113,1.171,1.171,0,0,0-.88-.337,1.222,1.222,0,0,0-.887.311,2.027,2.027,0,0,0-.473,1.079,11.811,11.811,0,0,0-.151,2.159,11.191,11.191,0,0,0,.151,2.1,1.979,1.979,0,0,0,.48,1.059,1.227,1.227,0,0,0,.88.31,1.168,1.168,0,0,0,.88-.337" transform="translate(-16.936 -2.154)" fill="#fff"/>
    <path id="Path_1413" data-name="Path 1413" d="M608.637,213.926a6.544,6.544,0,0,0-2.917.684l-.473-1.275a5.387,5.387,0,0,1,1.919-.357,10.945,10.945,0,0,1-1.669-.855,3.816,3.816,0,0,1-1.176-1.217,3.53,3.53,0,0,1-.48-1.9,3.3,3.3,0,0,1,.71-2.309,2.428,2.428,0,0,1,1.879-.77,2.3,2.3,0,0,1,1.393.376,1.854,1.854,0,0,1,.683,1.153,1.816,1.816,0,0,1,.6-1.147,2.138,2.138,0,0,1,2.431-.006,1.936,1.936,0,0,1,.611,1.153,1.743,1.743,0,0,1,.643-1.14,2.164,2.164,0,0,1,1.341-.389,2.547,2.547,0,0,1,1.957.79,3.386,3.386,0,0,1,.737,2.383,5.207,5.207,0,0,1-.263,1.692,6.331,6.331,0,0,1-.788,1.534l-1.485-.7a4.934,4.934,0,0,0,.525-1.2,5.044,5.044,0,0,0,.158-1.321,2.981,2.981,0,0,0-.263-1.487.874.874,0,0,0-.788-.411.856.856,0,0,0-.71.313,1.523,1.523,0,0,0-.249.955v2.03h-1.669v-2.03a1.518,1.518,0,0,0-.249-.955.844.844,0,0,0-.7-.313.882.882,0,0,0-.723.32,1.466,1.466,0,0,0-.263.948v2.03H607.69v-2.03a1.467,1.467,0,0,0-.257-.981.905.905,0,0,0-.715-.287q-1.053,0-1.051,1.738a2.715,2.715,0,0,0,.947,2.241,6.858,6.858,0,0,0,2.6,1.208,14.666,14.666,0,0,1,1.931.644,3.86,3.86,0,0,1,1.268.855,2.591,2.591,0,0,1,.664,1.329h-1.839q-.553-1.288-2.6-1.288" transform="translate(-19.034 -2.154)" fill="#fff"/>
    <path id="Path_1414" data-name="Path 1414" d="M621.409,206.957a3.011,3.011,0,0,1,2.49-1.033,3.052,3.052,0,0,1,2.439,1.013,4.79,4.79,0,0,1,.873,3.171,14.272,14.272,0,0,1-.257,2.888,12.561,12.561,0,0,1-.663,2.217H624.6a15.112,15.112,0,0,0,.616-2.364,16.03,16.03,0,0,0,.21-2.749,5.048,5.048,0,0,0-.36-2.2,1.22,1.22,0,0,0-1.164-.7,1.328,1.328,0,0,0-.887.285,1.715,1.715,0,0,0-.493.921,7.364,7.364,0,0,0-.157,1.709,16.077,16.077,0,0,0,.209,2.755,13.075,13.075,0,0,0,.644,2.345h-1.7a12.837,12.837,0,0,1-.682-2.237,13.779,13.779,0,0,1-.264-2.869,4.956,4.956,0,0,1,.835-3.151" transform="translate(-21.524 -2.154)" fill="#fff"/>
    <path id="Path_1415" data-name="Path 1415" d="M630.966,214.693a3.161,3.161,0,0,1-.821-2.317V206.17h1.736v6.2a2.321,2.321,0,0,0,.36,1.381,1.3,1.3,0,0,0,1.124.5,1.262,1.262,0,0,0,1.058-.463,1.948,1.948,0,0,0,.361-1.23,2.689,2.689,0,0,0-.138-.926,6.173,6.173,0,0,0-.44-.9,5.006,5.006,0,0,1-.454-.926,3.189,3.189,0,0,1-.151-1.048h1.721a1.8,1.8,0,0,0,.144.671,7.835,7.835,0,0,0,.409.763,7.331,7.331,0,0,1,.551,1.107,3.44,3.44,0,0,1,.184,1.216,3.039,3.039,0,0,1-.386,1.531,2.788,2.788,0,0,1-1.124,1.082,3.631,3.631,0,0,1-1.747.4,3.206,3.206,0,0,1-2.386-.833" transform="translate(-22.948 -2.19)" fill="#fff"/>
    <path id="Path_1416" data-name="Path 1416" d="M541.58,224.461a3.012,3.012,0,0,1,2.491-1.033,3.05,3.05,0,0,1,2.438,1.013,4.785,4.785,0,0,1,.873,3.171,14.288,14.288,0,0,1-.256,2.888,12.488,12.488,0,0,1-.664,2.217h-1.695a15.025,15.025,0,0,0,.617-2.365,16.024,16.024,0,0,0,.21-2.749,5.051,5.051,0,0,0-.361-2.2,1.219,1.219,0,0,0-1.163-.7,1.326,1.326,0,0,0-.887.285,1.71,1.71,0,0,0-.493.921,7.36,7.36,0,0,0-.157,1.709,16.084,16.084,0,0,0,.209,2.755,13.114,13.114,0,0,0,.644,2.345h-1.7a12.837,12.837,0,0,1-.683-2.237,13.784,13.784,0,0,1-.263-2.869,4.962,4.962,0,0,1,.834-3.151" transform="translate(-9.645 -4.758)" fill="#a95939"/>
    <path id="Path_1417" data-name="Path 1417" d="M555.449,226.6a2.8,2.8,0,0,1,.985,1.17,3.91,3.91,0,0,1,.348,1.676,3.8,3.8,0,0,1-.847,2.566,3.5,3.5,0,0,1-4.8.06,3.652,3.652,0,0,1-.815-2.5v-3.707a2.3,2.3,0,0,1,.684-1.846,2.671,2.671,0,0,1,1.8-.585,7.918,7.918,0,0,1,1.17.1,7,7,0,0,0,.8.079,3.6,3.6,0,0,0,1.144-.184l.223,1.274a3.861,3.861,0,0,1-1.261.184,4.218,4.218,0,0,1-.579-.039c-.183-.027-.3-.045-.341-.053a4.829,4.829,0,0,0-.907-.092.879.879,0,0,0-1,1.009v1.16a2.431,2.431,0,0,1,.821-.507,2.945,2.945,0,0,1,1.071-.191,2.657,2.657,0,0,1,1.5.426m-.855,4.546a3.064,3.064,0,0,0,.362-1.628q0-2.07-1.407-2.068a1.972,1.972,0,0,0-1.5.663v1.459a3.032,3.032,0,0,0,.349,1.561,1.2,1.2,0,0,0,1.123.587,1.184,1.184,0,0,0,1.071-.574" transform="translate(-11.07 -4.758)" fill="#a95939"/>
    <path id="Path_1418" data-name="Path 1418" d="M559.677,230.46a12.814,12.814,0,0,1-.283-2.888,5.267,5.267,0,0,1,.749-3.159,2.546,2.546,0,0,1,2.156-.987,1.961,1.961,0,0,1,2.075,1.593,2,2,0,0,1,2.143-1.593,2.459,2.459,0,0,1,2.089,1,5.269,5.269,0,0,1,.749,3.144,13.021,13.021,0,0,1-.283,2.908,12.382,12.382,0,0,1-.742,2.237h-1.708a13.463,13.463,0,0,0,.71-2.354,14.188,14.188,0,0,0,.236-2.751,5.669,5.669,0,0,0-.316-2.275,1,1,0,0,0-.933-.635.945.945,0,0,0-.794.365,1.815,1.815,0,0,0-.283,1.121V230h-1.735v-3.819q0-1.476-1.026-1.477a1.049,1.049,0,0,0-.769.278,1.718,1.718,0,0,0-.406.907,9.168,9.168,0,0,0-.126,1.73,14.2,14.2,0,0,0,.237,2.77,12.1,12.1,0,0,0,.723,2.331h-1.72a12.873,12.873,0,0,1-.743-2.257" transform="translate(-12.42 -4.758)" fill="#a95939"/>
    <path id="Path_1419" data-name="Path 1419" d="M578.4,228.6a2.258,2.258,0,0,1,.512,1.536,2.808,2.808,0,0,1-.38,1.442,2.69,2.69,0,0,1-1.11,1.035,3.7,3.7,0,0,1-1.729.38,3.61,3.61,0,0,1-1.688-.367,2.587,2.587,0,0,1-1.065-.981,2.636,2.636,0,0,1-.361-1.362,2.847,2.847,0,0,1,.355-1.4l1.537.427a2.665,2.665,0,0,0-.157.908,1.545,1.545,0,0,0,.335,1.035,1.3,1.3,0,0,0,1.044.394,1.267,1.267,0,0,0,1.032-.421,1.72,1.72,0,0,0,.346-1.129,1.763,1.763,0,0,0-.354-1.179,1.318,1.318,0,0,0-1.065-.418h-.485l.224-1.287h.289a1.113,1.113,0,0,0,1.222-1.236,1.263,1.263,0,0,0-.315-.9,1.185,1.185,0,0,0-.907-.335,1.269,1.269,0,0,0-.914.309,1.1,1.1,0,0,0-.322.834,1.74,1.74,0,0,0,.093.552l-1.6.341a2.418,2.418,0,0,1-.237-1.025,1.99,1.99,0,0,1,.375-1.176,2.484,2.484,0,0,1,1.051-.834,3.78,3.78,0,0,1,1.557-.3,3.663,3.663,0,0,1,1.577.322,2.537,2.537,0,0,1,1.056.881,2.154,2.154,0,0,1,.375,1.228,1.91,1.91,0,0,1-.44,1.281,2.253,2.253,0,0,1-1.294.7,2.369,2.369,0,0,1,1.445.745" transform="translate(-14.382 -4.76)" fill="#a95939"/>
    <path id="Path_1420" data-name="Path 1420" d="M585.71,225.1a9.226,9.226,0,0,0,.881,1.436q.433.609.689,1.052a4.918,4.918,0,0,1,.433,1.019,4.285,4.285,0,0,1,.178,1.277,3.312,3.312,0,0,1-.4,1.654,2.745,2.745,0,0,1-1.142,1.1,4.08,4.08,0,0,1-3.475,0,2.7,2.7,0,0,1-1.131-1.085,3.234,3.234,0,0,1-.393-1.616,4.03,4.03,0,0,1,.565-2.037l1.5.512a3.54,3.54,0,0,0-.21.684,3.786,3.786,0,0,0-.077.748,2.128,2.128,0,0,0,.36,1.308,1.32,1.32,0,0,0,1.125.479,1.29,1.29,0,0,0,1.1-.473,2.084,2.084,0,0,0,.355-1.274,3.405,3.405,0,0,0-.152-1.038,3.741,3.741,0,0,0-.368-.828q-.217-.354-.6-.881a11.831,11.831,0,0,1-.689-1.031,4.916,4.916,0,0,1-.441-1.051,4.8,4.8,0,0,1-.184-1.386h1.774a3.419,3.419,0,0,0,.3,1.422" transform="translate(-15.687 -4.795)" fill="#a95939"/>
    <path id="Path_1421" data-name="Path 1421" d="M591.4,231.793a5.505,5.505,0,0,1-1.017-3.58,9.608,9.608,0,0,1,.274-2.415,12.749,12.749,0,0,1,.776-2.124h1.695a15.382,15.382,0,0,0-.722,2.234,10.243,10.243,0,0,0-.237,2.314,4.884,4.884,0,0,0,.579,2.647,1.824,1.824,0,0,0,1.616.887,1.605,1.605,0,0,0,1.2-.438,1.674,1.674,0,0,0,.427-1.22,1.613,1.613,0,0,0-.388-1.151,1.526,1.526,0,0,0-1.164-.411h-.656l.209-1.275h.71a1.5,1.5,0,0,0,.855-.2.645.645,0,0,0,.289-.553.894.894,0,0,0-.145-.526,3.277,3.277,0,0,0-.46-.485,6.255,6.255,0,0,1-.467-.472,1.724,1.724,0,0,1-.3-.533,2.356,2.356,0,0,1-.123-.815h1.576a1.133,1.133,0,0,0,.216.641,4.329,4.329,0,0,0,.586.627,4.035,4.035,0,0,1,.644.7,1.356,1.356,0,0,1,.222.781q0,1.163-1.629,1.468a2.275,2.275,0,0,1,1.359.724,2.193,2.193,0,0,1,.494,1.5,2.769,2.769,0,0,1-.414,1.491,2.832,2.832,0,0,1-1.19,1.044,4.135,4.135,0,0,1-1.839.381,3.632,3.632,0,0,1-2.977-1.238" transform="translate(-17.031 -4.795)" fill="#a95939"/>
    <path id="Path_1422" data-name="Path 1422" d="M601.432,224.461a3.012,3.012,0,0,1,2.491-1.033,3.051,3.051,0,0,1,2.438,1.013,4.785,4.785,0,0,1,.873,3.171,14.283,14.283,0,0,1-.256,2.888,12.4,12.4,0,0,1-.665,2.217h-1.694a15.031,15.031,0,0,0,.617-2.365,16.017,16.017,0,0,0,.21-2.749,5.052,5.052,0,0,0-.361-2.2,1.219,1.219,0,0,0-1.163-.7,1.326,1.326,0,0,0-.887.285,1.71,1.71,0,0,0-.493.921,7.364,7.364,0,0,0-.157,1.709,16.077,16.077,0,0,0,.209,2.755,13.119,13.119,0,0,0,.644,2.345h-1.7a12.837,12.837,0,0,1-.683-2.237,13.784,13.784,0,0,1-.263-2.869,4.961,4.961,0,0,1,.834-3.151" transform="translate(-18.551 -4.758)" fill="#a95939"/>
    <path id="Path_1423" data-name="Path 1423" d="M615.948,224.041a2.3,2.3,0,0,1,.6,1.7v4.293a3.179,3.179,0,0,1-.362,1.527,2.541,2.541,0,0,1-1.078,1.054,4.067,4.067,0,0,1-3.417.007,2.65,2.65,0,0,1-1.09-1.014,2.83,2.83,0,0,1-.375-1.454,3.3,3.3,0,0,1,.434-1.64l1.524.466a2.765,2.765,0,0,0-.2,1.107,1.754,1.754,0,0,0,.341,1.141,1.293,1.293,0,0,0,1.065.42,1.269,1.269,0,0,0,1.064-.453,2.059,2.059,0,0,0,.355-1.294v-4.093c0-.692-.247-1.038-.736-1.038a.725.725,0,0,0-.6.249,1.126,1.126,0,0,0-.2.71v1.576h-1.629v-1.682q0-.735-.592-.735a2.806,2.806,0,0,0-.341.026c-.157.017-.276.026-.354.026a1.412,1.412,0,0,1-.775-.21l.276-1.261a1.24,1.24,0,0,0,.46.078,1.925,1.925,0,0,0,.38-.039c.289-.026.456-.039.5-.039a1.3,1.3,0,0,1,.81.276.652.652,0,1,0,1.2-.014,2.2,2.2,0,0,1,1.143-.289,2.154,2.154,0,0,1,1.6.6" transform="translate(-19.888 -4.76)" fill="#a95939"/>
    <path id="Path_1424" data-name="Path 1424" d="M619.587,230.989a9.236,9.236,0,0,1-.216-2.122,7.521,7.521,0,0,1,.315-2.352,3.12,3.12,0,0,1,1.162-1.564,5.675,5.675,0,0,1,2.4-.88,11.938,11.938,0,0,0,2.707-.644l.592,1.09a6.594,6.594,0,0,1-2.812.816,5.055,5.055,0,0,0-1.873.511,1.963,1.963,0,0,0-.874.986,1.784,1.784,0,0,1,1.367-.565,1.818,1.818,0,0,1,1.15.375,1.854,1.854,0,0,1,.637,1.124,1.793,1.793,0,0,1,.71-1.124,2.385,2.385,0,0,1,1.392-.375,2.569,2.569,0,0,1,1.933.763,3.175,3.175,0,0,1,.735,2.286,6.74,6.74,0,0,1-.216,1.767,9.963,9.963,0,0,1-.613,1.636h-1.694a13.1,13.1,0,0,0,.558-1.745,7.109,7.109,0,0,0,.177-1.614q0-1.818-1.17-1.818a.914.914,0,0,0-.716.3,1.4,1.4,0,0,0-.269.954v2.057h-1.656v-2.057a1.36,1.36,0,0,0-.283-.954.94.94,0,0,0-.716-.3.986.986,0,0,0-.881.438,2.525,2.525,0,0,0-.289,1.368,7.115,7.115,0,0,0,.177,1.627,13.2,13.2,0,0,0,.557,1.745h-1.694a8.886,8.886,0,0,1-.6-1.728" transform="translate(-21.345 -4.758)" fill="#a95939"/>
    <path id="Path_1425" data-name="Path 1425" d="M632.894,224.461a3.013,3.013,0,0,1,2.491-1.033,3.05,3.05,0,0,1,2.437,1.013,4.78,4.78,0,0,1,.873,3.171,14.359,14.359,0,0,1-.255,2.888,12.492,12.492,0,0,1-.665,2.217h-1.695a15.035,15.035,0,0,0,.618-2.365,16.036,16.036,0,0,0,.209-2.749,5.05,5.05,0,0,0-.361-2.2,1.217,1.217,0,0,0-1.162-.7,1.323,1.323,0,0,0-.887.285,1.7,1.7,0,0,0-.493.921,7.35,7.35,0,0,0-.158,1.709,16.091,16.091,0,0,0,.209,2.755,13.119,13.119,0,0,0,.644,2.345h-1.695a12.841,12.841,0,0,1-.684-2.237,13.788,13.788,0,0,1-.263-2.869,4.967,4.967,0,0,1,.834-3.151" transform="translate(-23.233 -4.758)" fill="#a95939"/>
    <path id="Path_1426" data-name="Path 1426" d="M541.69,249.7a3.155,3.155,0,0,1-.821-2.316v-6.206H542.6v6.2a2.327,2.327,0,0,0,.361,1.381,1.3,1.3,0,0,0,1.124.5,1.259,1.259,0,0,0,1.058-.463,1.939,1.939,0,0,0,.361-1.229,2.665,2.665,0,0,0-.138-.926,5.986,5.986,0,0,0-.439-.9,5.036,5.036,0,0,1-.455-.926,3.19,3.19,0,0,1-.15-1.048h1.721a1.8,1.8,0,0,0,.144.67,7.752,7.752,0,0,0,.409.764,7.413,7.413,0,0,1,.551,1.107,3.434,3.434,0,0,1,.185,1.215,3.055,3.055,0,0,1-.387,1.532,2.785,2.785,0,0,1-1.124,1.082,3.628,3.628,0,0,1-1.747.4,3.2,3.2,0,0,1-2.386-.833" transform="translate(-9.664 -7.4)" fill="#a95939"/>
    <path id="Path_1427" data-name="Path 1427" d="M555.206,245.767a2.473,2.473,0,0,1,.586,1.726,3.242,3.242,0,0,1-.369,1.554,2.664,2.664,0,0,1-1.089,1.087,3.531,3.531,0,0,1-1.735.4,3.573,3.573,0,0,1-1.676-.368,2.579,2.579,0,0,1-1.072-1,2.779,2.779,0,0,1-.368-1.421,3.234,3.234,0,0,1,.407-1.561l1.524.453a2.76,2.76,0,0,0-.184,1.041,1.681,1.681,0,0,0,.336,1.095,1.249,1.249,0,0,0,1.032.414,1.169,1.169,0,0,0,1.017-.467,2.151,2.151,0,0,0,.335-1.281,2.032,2.032,0,0,0-.4-1.343,1.405,1.405,0,0,0-1.136-.476h-.435l.21-1.314h.092a1.151,1.151,0,0,0,1.3-1.3,3.859,3.859,0,0,0-.5-1.827H554.7a3.1,3.1,0,0,1,.631,1.8,1.955,1.955,0,0,1-1.708,1.984,2.6,2.6,0,0,1,1.582.8" transform="translate(-10.946 -7.4)" fill="#a95939"/>
    <path id="Path_1428" data-name="Path 1428" d="M558.581,247.965a12.819,12.819,0,0,1-.283-2.888,5.267,5.267,0,0,1,.749-3.159,2.546,2.546,0,0,1,2.155-.987,1.962,1.962,0,0,1,2.076,1.593,2,2,0,0,1,2.143-1.593,2.461,2.461,0,0,1,2.089,1,5.279,5.279,0,0,1,.749,3.146,12.974,12.974,0,0,1-.283,2.908,12.293,12.293,0,0,1-.742,2.237h-1.708a13.35,13.35,0,0,0,.71-2.354,14.055,14.055,0,0,0,.237-2.751,5.667,5.667,0,0,0-.316-2.275,1,1,0,0,0-.932-.635.948.948,0,0,0-.8.365,1.819,1.819,0,0,0-.283,1.121v3.81h-1.735v-3.819q0-1.476-1.025-1.477a1.048,1.048,0,0,0-.769.278,1.732,1.732,0,0,0-.407.907,9.242,9.242,0,0,0-.125,1.729,14.169,14.169,0,0,0,.237,2.769,12.078,12.078,0,0,0,.723,2.332h-1.721a13.177,13.177,0,0,1-.743-2.257" transform="translate(-12.257 -7.363)" fill="#a95939"/>
    <path id="Path_1429" data-name="Path 1429" d="M576.125,248.934a6.556,6.556,0,0,0-2.917.684l-.474-1.275a5.4,5.4,0,0,1,1.919-.358,10.987,10.987,0,0,1-1.669-.855,3.815,3.815,0,0,1-1.175-1.217,3.527,3.527,0,0,1-.48-1.9,3.3,3.3,0,0,1,.71-2.309,2.428,2.428,0,0,1,1.879-.769,2.3,2.3,0,0,1,1.393.376,1.846,1.846,0,0,1,.684,1.153,1.812,1.812,0,0,1,.6-1.147,2.14,2.14,0,0,1,2.431-.005,1.931,1.931,0,0,1,.611,1.153,1.734,1.734,0,0,1,.643-1.141,2.159,2.159,0,0,1,1.341-.388,2.549,2.549,0,0,1,1.958.789,3.391,3.391,0,0,1,.736,2.383,5.207,5.207,0,0,1-.264,1.692,6.311,6.311,0,0,1-.787,1.534l-1.485-.7a4.978,4.978,0,0,0,.526-1.2,5.045,5.045,0,0,0,.157-1.321,2.965,2.965,0,0,0-.263-1.486.873.873,0,0,0-.788-.412.855.855,0,0,0-.71.313,1.523,1.523,0,0,0-.249.955v2.03h-1.669v-2.03a1.524,1.524,0,0,0-.249-.955.844.844,0,0,0-.7-.313.881.881,0,0,0-.723.32,1.468,1.468,0,0,0-.264.948v2.03h-1.668v-2.03a1.468,1.468,0,0,0-.256-.981.907.907,0,0,0-.716-.288q-1.052,0-1.051,1.738a2.717,2.717,0,0,0,.947,2.241,6.858,6.858,0,0,0,2.6,1.208,14.713,14.713,0,0,1,1.931.644,3.866,3.866,0,0,1,1.267.855,2.586,2.586,0,0,1,.665,1.329h-1.84q-.552-1.288-2.6-1.288" transform="translate(-14.196 -7.363)" fill="#a95939"/>
    <path id="Path_1430" data-name="Path 1430" d="M591.807,242.6a9.43,9.43,0,0,0,.881,1.436q.433.609.689,1.052a4.964,4.964,0,0,1,.433,1.019,4.323,4.323,0,0,1,.178,1.277,3.312,3.312,0,0,1-.4,1.654,2.748,2.748,0,0,1-1.143,1.106,4.088,4.088,0,0,1-3.475,0,2.707,2.707,0,0,1-1.13-1.085,3.239,3.239,0,0,1-.394-1.617,4.041,4.041,0,0,1,.565-2.037l1.5.512a3.648,3.648,0,0,0-.21.684,3.729,3.729,0,0,0-.078.748,2.128,2.128,0,0,0,.361,1.308,1.318,1.318,0,0,0,1.124.479,1.289,1.289,0,0,0,1.1-.473,2.075,2.075,0,0,0,.355-1.274,3.435,3.435,0,0,0-.151-1.038,3.838,3.838,0,0,0-.369-.828q-.217-.354-.6-.88a12.012,12.012,0,0,1-.69-1.032,4.858,4.858,0,0,1-.439-1.051,4.775,4.775,0,0,1-.185-1.386h1.774a3.447,3.447,0,0,0,.3,1.422" transform="translate(-16.594 -7.4)" fill="#a95939"/>
  </g>
</svg>
