<svg xmlns="http://www.w3.org/2000/svg" width="224.265" height="103" viewBox="0 0 224.265 103">
  <g id="Logo-footer" transform="translate(-475.923 -191.45)">
    <path id="Path_1398" data-name="Path 1398" d="M524.072,283.513a3.135,3.135,0,0,1-3.131,3.131h-38.4a3.135,3.135,0,0,1-3.131-3.131V209.576a3.135,3.135,0,0,1,3.131-3.131h1.275l-3-3.257a6.628,6.628,0,0,0-4.889,6.389v73.938a6.625,6.625,0,0,0,6.618,6.617h38.4a6.625,6.625,0,0,0,6.619-6.617v-3.047h-3.487Z" transform="translate(0 4.32)" fill="#fff"/>
    <path id="Path_1399" data-name="Path 1399" d="M501.032,191.45a32.931,32.931,0,0,1,22.784,9.1c.212.2.412.417.627.62.141.131.145.239,0,.38q-1.126,1.114-2.244,2.242c-.168.171-.283.129-.438-.018-.851-.808-1.707-1.612-2.638-2.334a29.365,29.365,0,0,0-5.78-3.546,28.94,28.94,0,0,0-6.858-2.2,29.555,29.555,0,0,0-7.327-.424,27.929,27.929,0,0,0-6.36,1.144,29.083,29.083,0,0,0-8.564,4.2,31.376,31.376,0,0,0-3.684,3.111c-.223.219-.356.212-.568-.008q-1.028-1.063-2.094-2.09c-.217-.209-.2-.337,0-.539a33.058,33.058,0,0,1,18.187-9.249,33.857,33.857,0,0,1,4.951-.394" transform="translate(0.667 0)" fill="#fff"/>
    <path id="Path_1400" data-name="Path 1400" d="M499.415,198.14a23.6,23.6,0,0,1,11.682,3.09,23.937,23.937,0,0,1,5.06,3.846c.22.217.227.346,0,.564-.7.676-1.4,1.363-2.067,2.068-.244.256-.393.224-.623-.008a19.992,19.992,0,0,0-28.188.036c-.224.22-.353.212-.566-.008-.685-.709-1.38-1.409-2.093-2.092-.234-.224-.2-.353.014-.562a23.8,23.8,0,0,1,16.779-6.933" transform="translate(2.406 2.462)" fill="#fff"/>
    <path id="Path_1401" data-name="Path 1401" d="M508.169,209.353a.644.644,0,0,1-.219.293c-.695.7-1.4,1.389-2.085,2.1-.208.216-.332.2-.536,0a10.384,10.384,0,0,0-5.229-2.9,10.712,10.712,0,0,0-10.039,2.824c-.343.321-.338.327-.676-.011l-1.969-1.967c-.338-.337-.343-.346.011-.687a14.633,14.633,0,0,1,18.518-1.6,12.714,12.714,0,0,1,2.03,1.684.579.579,0,0,1,.193.268" transform="translate(4.137 4.922)" fill="#fff"/>
    <path id="Path_1402" data-name="Path 1402" d="M495.914,211.5a5.483,5.483,0,0,1,3.886,1.635c.166.165.193.28.012.46q-1.849,1.83-3.684,3.68c-.146.146-.256.163-.409.008q-1.849-1.859-3.709-3.706c-.174-.172-.129-.283.021-.434a5.475,5.475,0,0,1,3.883-1.643" transform="translate(5.88 7.379)" fill="#fff"/>
    <path id="Path_1403" data-name="Path 1403" d="M512.17,261.6a19.913,19.913,0,0,1-12.829-4.61,17.779,17.779,0,0,1-6.305-11.459l-.237-1.954h38.743l-.235,1.954A17.786,17.786,0,0,1,525,256.989a19.917,19.917,0,0,1-12.831,4.61m-15.293-14.535c1.737,6.42,7.977,11.05,15.293,11.05s13.556-4.629,15.293-11.05Z" transform="translate(6.211 19.184)" fill="#a95939"/>
    <path id="Path_1404" data-name="Path 1404" d="M513.536,212.408h-3.388L493.1,252.736h3.786l14.953-35.38,14.952,35.38h3.786Z" transform="translate(6.323 7.713)" fill="#a95939"/>
    <path id="Path_1405" data-name="Path 1405" d="M537.026,263.728l.007,0-24.269-59.178-2.661,2.645,12.784,32.022,10.362,24.514Z" transform="translate(12.579 4.82)" fill="#a95939"/>
    <path id="Path_1406" data-name="Path 1406" d="M524.494,249.192a20.886,20.886,0,0,1-1.852,3.487h8.842c-1.737,6.419-7.977,11.048-15.293,11.048-.088,0-.172,0-.26,0v3.488l.26,0a19.92,19.92,0,0,0,12.829-4.61,17.779,17.779,0,0,0,6.305-11.46l.237-1.952Z" transform="translate(14.724 21.251)" fill="#a95939"/>
    <path id="Path_1407" data-name="Path 1407" d="M542.189,219.868a5.075,5.075,0,0,1-1.32-3.724V206.17h2.788v9.967a3.74,3.74,0,0,0,.58,2.219,2.085,2.085,0,0,0,1.806.8,2.028,2.028,0,0,0,1.7-.744,3.123,3.123,0,0,0,.58-1.977,4.288,4.288,0,0,0-.222-1.488,9.622,9.622,0,0,0-.706-1.447,8.051,8.051,0,0,1-.731-1.488,5.128,5.128,0,0,1-.241-1.684h2.766a2.9,2.9,0,0,0,.231,1.078,12.614,12.614,0,0,0,.657,1.226,11.914,11.914,0,0,1,.885,1.78,5.528,5.528,0,0,1,.3,1.954,4.9,4.9,0,0,1-.622,2.461,4.476,4.476,0,0,1-1.807,1.739,5.831,5.831,0,0,1-2.807.64,5.151,5.151,0,0,1-3.835-1.339" transform="translate(23.902 5.417)" fill="#fff"/>
    <path id="Path_1408" data-name="Path 1408" d="M556.8,208.457a15.047,15.047,0,0,0,1.416,2.308q.7.979,1.109,1.691a7.9,7.9,0,0,1,.695,1.638,6.945,6.945,0,0,1,.286,2.052,5.35,5.35,0,0,1-.643,2.658,4.438,4.438,0,0,1-1.839,1.777,6.564,6.564,0,0,1-5.586.005,4.344,4.344,0,0,1-1.815-1.743,5.179,5.179,0,0,1-.635-2.6,6.508,6.508,0,0,1,.908-3.274l2.408.824a5.436,5.436,0,0,0-.338,1.1,5.883,5.883,0,0,0-.127,1.2,3.42,3.42,0,0,0,.582,2.1,2.113,2.113,0,0,0,1.8.77,2.07,2.07,0,0,0,1.774-.761,3.334,3.334,0,0,0,.571-2.048,5.479,5.479,0,0,0-.244-1.669,6.163,6.163,0,0,0-.59-1.331q-.349-.568-.962-1.415a19.631,19.631,0,0,1-1.109-1.658,7.98,7.98,0,0,1-.707-1.69,7.768,7.768,0,0,1-.3-2.227h2.851a5.516,5.516,0,0,0,.485,2.286" transform="translate(27.186 5.418)" fill="#fff"/>
    <path id="Path_1409" data-name="Path 1409" d="M567.894,207.149a4.3,4.3,0,0,1,1.32,3.311v5.409a5.748,5.748,0,0,1-1.309,3.962,4.833,4.833,0,0,1-3.8,1.468,5.512,5.512,0,0,1-2.893-.713,4.538,4.538,0,0,1-1.784-1.958,6.441,6.441,0,0,1-.6-2.843,5.908,5.908,0,0,1,.591-2.65,4.714,4.714,0,0,1,1.668-1.906,4.426,4.426,0,0,1,2.472-.7,4.076,4.076,0,0,1,2.871,1.118V210.23a2.015,2.015,0,0,0-2.3-2.257,2.687,2.687,0,0,0-1.573.386,1.2,1.2,0,0,0-.537,1.027v.171l-2.683.233a1.644,1.644,0,0,1-.085-.513,2.726,2.726,0,0,1,.591-1.72,3.92,3.92,0,0,1,1.689-1.194,6.851,6.851,0,0,1,2.555-.439,5.408,5.408,0,0,1,3.813,1.226m-2.027,11.173a4.7,4.7,0,0,0,.56-2.441v-2.246a3.046,3.046,0,0,0-2.323-1.059,2.032,2.032,0,0,0-1.7.854,4.058,4.058,0,0,0-.643,2.472,4.458,4.458,0,0,0,.581,2.475,1.951,1.951,0,0,0,1.741.874,1.931,1.931,0,0,0,1.785-.929" transform="translate(30.51 5.326)" fill="#fff"/>
    <path id="Path_1410" data-name="Path 1410" d="M575.035,208.457a15.067,15.067,0,0,0,1.417,2.308q.694.979,1.107,1.691a7.99,7.99,0,0,1,.7,1.638,6.9,6.9,0,0,1,.286,2.052,5.323,5.323,0,0,1-.644,2.658,4.418,4.418,0,0,1-1.837,1.777,6.564,6.564,0,0,1-5.586.005,4.347,4.347,0,0,1-1.817-1.743,5.208,5.208,0,0,1-.633-2.6,6.5,6.5,0,0,1,.908-3.274l2.406.824a5.713,5.713,0,0,0-.338,1.1,6.083,6.083,0,0,0-.126,1.2,3.42,3.42,0,0,0,.58,2.1,2.118,2.118,0,0,0,1.806.77,2.072,2.072,0,0,0,1.774-.761,3.326,3.326,0,0,0,.57-2.048,5.518,5.518,0,0,0-.242-1.669,6.158,6.158,0,0,0-.592-1.331q-.349-.568-.96-1.415a19.28,19.28,0,0,1-1.109-1.658,7.91,7.91,0,0,1-.707-1.69,7.722,7.722,0,0,1-.3-2.227h2.851a5.541,5.541,0,0,0,.486,2.286" transform="translate(33.896 5.418)" fill="#fff"/>
    <path id="Path_1411" data-name="Path 1411" d="M577.4,218.078a14.871,14.871,0,0,1-.347-3.412,12.092,12.092,0,0,1,.506-3.78,5.015,5.015,0,0,1,1.869-2.513,9.107,9.107,0,0,1,3.852-1.415,19.223,19.223,0,0,0,4.353-1.036l.948,1.754a10.621,10.621,0,0,1-4.517,1.312,8.118,8.118,0,0,0-3.011.819,3.152,3.152,0,0,0-1.4,1.584,2.864,2.864,0,0,1,2.2-.908,2.919,2.919,0,0,1,1.848.6,2.98,2.98,0,0,1,1.023,1.807,2.888,2.888,0,0,1,1.141-1.807,3.842,3.842,0,0,1,2.238-.6,4.124,4.124,0,0,1,3.1,1.226,5.1,5.1,0,0,1,1.183,3.675,10.843,10.843,0,0,1-.348,2.841,16.123,16.123,0,0,1-.984,2.628h-2.724a21.472,21.472,0,0,0,.9-2.8,11.5,11.5,0,0,0,.285-2.592q0-2.924-1.88-2.923a1.472,1.472,0,0,0-1.152.483,2.25,2.25,0,0,0-.432,1.534v3.305H583.39V214.55a2.18,2.18,0,0,0-.454-1.534,1.512,1.512,0,0,0-1.149-.483,1.587,1.587,0,0,0-1.417.7,4.075,4.075,0,0,0-.462,2.2,11.52,11.52,0,0,0,.284,2.614,21.04,21.04,0,0,0,.9,2.8h-2.724a14.207,14.207,0,0,1-.962-2.776" transform="translate(37.22 5.326)" fill="#fff"/>
    <path id="Path_1412" data-name="Path 1412" d="M605.944,207.541a8.172,8.172,0,0,1,1.268,5.044,20.85,20.85,0,0,1-.456,4.675,19.752,19.752,0,0,1-1.193,3.6h-2.808a19.794,19.794,0,0,0,1.193-3.77,22.3,22.3,0,0,0,.39-4.449,7.416,7.416,0,0,0-.633-3.631,1.96,1.96,0,0,0-1.752-1.033,2.814,2.814,0,0,0-2.134.986,14.028,14.028,0,0,1,.657,4.679q0,4.121-1.363,5.891a4.741,4.741,0,0,1-4,1.77,4.676,4.676,0,0,1-4.033-1.81q-1.332-1.81-1.333-5.814,0-4.088,1.333-5.919a5.431,5.431,0,0,1,7.792-.353,4.956,4.956,0,0,1,3.568-1.479,4.21,4.21,0,0,1,3.508,1.618m-9.42,11.166a3.455,3.455,0,0,0,.772-1.746,17.211,17.211,0,0,0,.242-3.264,18.558,18.558,0,0,0-.242-3.394,3.516,3.516,0,0,0-.772-1.789,1.882,1.882,0,0,0-1.414-.542,1.964,1.964,0,0,0-1.426.5,3.259,3.259,0,0,0-.761,1.735,18.985,18.985,0,0,0-.242,3.469,17.988,17.988,0,0,0,.242,3.374,3.182,3.182,0,0,0,.772,1.7,1.973,1.973,0,0,0,1.415.5,1.877,1.877,0,0,0,1.414-.542" transform="translate(41.889 5.326)" fill="#fff"/>
    <path id="Path_1413" data-name="Path 1413" d="M611.549,218.785a10.517,10.517,0,0,0-4.688,1.1l-.761-2.049a8.659,8.659,0,0,1,3.083-.575,17.593,17.593,0,0,1-2.683-1.375,6.134,6.134,0,0,1-1.889-1.956,5.673,5.673,0,0,1-.771-3.056,5.308,5.308,0,0,1,1.141-3.711A3.9,3.9,0,0,1,608,205.923a3.7,3.7,0,0,1,2.238.6,2.98,2.98,0,0,1,1.1,1.852,2.918,2.918,0,0,1,.962-1.843,3.436,3.436,0,0,1,3.907-.01,3.112,3.112,0,0,1,.982,1.852,2.8,2.8,0,0,1,1.033-1.832,3.477,3.477,0,0,1,2.156-.625,4.093,4.093,0,0,1,3.145,1.27,5.441,5.441,0,0,1,1.185,3.83,8.368,8.368,0,0,1-.423,2.72,10.172,10.172,0,0,1-1.267,2.465l-2.387-1.13a7.929,7.929,0,0,0,.844-1.932,8.106,8.106,0,0,0,.254-2.123,4.791,4.791,0,0,0-.423-2.39,1.4,1.4,0,0,0-1.267-.661,1.376,1.376,0,0,0-1.141.5,2.448,2.448,0,0,0-.4,1.535v3.263h-2.683v-3.263a2.439,2.439,0,0,0-.4-1.535,1.356,1.356,0,0,0-1.119-.5,1.417,1.417,0,0,0-1.161.514,2.356,2.356,0,0,0-.423,1.524v3.263h-2.683v-3.263a2.358,2.358,0,0,0-.413-1.577,1.455,1.455,0,0,0-1.149-.461q-1.693,0-1.69,2.794a4.363,4.363,0,0,0,1.521,3.6,11.022,11.022,0,0,0,4.181,1.941,23.575,23.575,0,0,1,3.1,1.036,6.2,6.2,0,0,1,2.038,1.375,4.164,4.164,0,0,1,1.067,2.135h-2.956q-.888-2.071-4.182-2.07" transform="translate(47.077 5.326)" fill="#fff"/>
    <path id="Path_1414" data-name="Path 1414" d="M621.916,207.583a4.84,4.84,0,0,1,4-1.659,4.9,4.9,0,0,1,3.919,1.628q1.4,1.629,1.4,5.1a22.931,22.931,0,0,1-.413,4.642,20.184,20.184,0,0,1-1.066,3.564h-2.724a24.286,24.286,0,0,0,.99-3.8,25.765,25.765,0,0,0,.338-4.419,8.112,8.112,0,0,0-.579-3.535,1.961,1.961,0,0,0-1.87-1.13,2.134,2.134,0,0,0-1.425.458,2.757,2.757,0,0,0-.792,1.48,11.837,11.837,0,0,0-.252,2.747,25.835,25.835,0,0,0,.337,4.428,21.009,21.009,0,0,0,1.035,3.769h-2.726a20.636,20.636,0,0,1-1.1-3.6,22.142,22.142,0,0,1-.424-4.61,7.966,7.966,0,0,1,1.342-5.064" transform="translate(53.236 5.327)" fill="#fff"/>
    <path id="Path_1415" data-name="Path 1415" d="M631.465,219.868a5.08,5.08,0,0,1-1.32-3.724V206.17h2.789v9.967a3.73,3.73,0,0,0,.579,2.219,2.087,2.087,0,0,0,1.807.8,2.028,2.028,0,0,0,1.7-.744,3.13,3.13,0,0,0,.58-1.977,4.321,4.321,0,0,0-.222-1.488,9.924,9.924,0,0,0-.707-1.447,8.042,8.042,0,0,1-.729-1.488,5.126,5.126,0,0,1-.242-1.684h2.766a2.894,2.894,0,0,0,.231,1.078,12.581,12.581,0,0,0,.657,1.226,11.786,11.786,0,0,1,.885,1.78,5.529,5.529,0,0,1,.3,1.954,4.884,4.884,0,0,1-.621,2.461,4.48,4.48,0,0,1-1.806,1.739,5.836,5.836,0,0,1-2.809.64,5.153,5.153,0,0,1-3.835-1.339" transform="translate(56.758 5.417)" fill="#fff"/>
    <path id="Path_1416" data-name="Path 1416" d="M542.087,225.087a4.841,4.841,0,0,1,4-1.659,4.9,4.9,0,0,1,3.918,1.628q1.4,1.629,1.4,5.1a22.958,22.958,0,0,1-.412,4.642,20.07,20.07,0,0,1-1.067,3.564h-2.724a24.145,24.145,0,0,0,.992-3.8,25.754,25.754,0,0,0,.338-4.419,8.117,8.117,0,0,0-.58-3.535,1.959,1.959,0,0,0-1.869-1.129,2.131,2.131,0,0,0-1.426.458,2.747,2.747,0,0,0-.792,1.48,11.826,11.826,0,0,0-.253,2.747,25.847,25.847,0,0,0,.337,4.428,21.082,21.082,0,0,0,1.036,3.769h-2.725a20.635,20.635,0,0,1-1.1-3.6,22.159,22.159,0,0,1-.423-4.61,7.974,7.974,0,0,1,1.341-5.064" transform="translate(23.857 11.769)" fill="#a95939"/>
    <path id="Path_1417" data-name="Path 1417" d="M558.565,228.524a4.5,4.5,0,0,1,1.583,1.88,6.285,6.285,0,0,1,.559,2.694,6.105,6.105,0,0,1-1.361,4.125,5.63,5.63,0,0,1-7.72.1,5.87,5.87,0,0,1-1.309-4.025v-5.958a3.694,3.694,0,0,1,1.1-2.967,4.293,4.293,0,0,1,2.893-.94,12.724,12.724,0,0,1,1.88.168,11.255,11.255,0,0,0,1.287.127,5.78,5.78,0,0,0,1.839-.3l.359,2.048a6.2,6.2,0,0,1-2.027.3,6.777,6.777,0,0,1-.93-.063c-.294-.044-.477-.073-.548-.085a7.759,7.759,0,0,0-1.457-.148,1.412,1.412,0,0,0-1.6,1.621v1.865a3.907,3.907,0,0,1,1.32-.815,4.733,4.733,0,0,1,1.721-.306,4.271,4.271,0,0,1,2.419.684m-1.374,7.307a4.924,4.924,0,0,0,.582-2.617q0-3.326-2.261-3.324a3.17,3.17,0,0,0-2.406,1.066V233.3a4.874,4.874,0,0,0,.561,2.509,1.936,1.936,0,0,0,1.8.944,1.9,1.9,0,0,0,1.721-.922" transform="translate(27.379 11.769)" fill="#a95939"/>
    <path id="Path_1418" data-name="Path 1418" d="M559.849,234.731a20.6,20.6,0,0,1-.456-4.642q0-3.49,1.2-5.077a4.091,4.091,0,0,1,3.465-1.586,3.151,3.151,0,0,1,3.335,2.56,3.221,3.221,0,0,1,3.445-2.56,3.952,3.952,0,0,1,3.357,1.609,8.469,8.469,0,0,1,1.2,5.053,20.927,20.927,0,0,1-.454,4.673,19.9,19.9,0,0,1-1.193,3.6h-2.746a21.636,21.636,0,0,0,1.141-3.784,22.8,22.8,0,0,0,.379-4.421,9.112,9.112,0,0,0-.508-3.657,1.608,1.608,0,0,0-1.5-1.021,1.519,1.519,0,0,0-1.276.587,2.917,2.917,0,0,0-.454,1.8v6.123h-2.788v-6.138q0-2.372-1.648-2.374a1.686,1.686,0,0,0-1.235.447,2.76,2.76,0,0,0-.653,1.458,14.735,14.735,0,0,0-.2,2.78,22.826,22.826,0,0,0,.38,4.452,19.451,19.451,0,0,0,1.161,3.746h-2.765a20.693,20.693,0,0,1-1.194-3.627" transform="translate(30.72 11.768)" fill="#a95939"/>
    <path id="Path_1419" data-name="Path 1419" d="M581.935,231.736a3.628,3.628,0,0,1,.822,2.468,4.512,4.512,0,0,1-.612,2.317,4.325,4.325,0,0,1-1.784,1.664,5.942,5.942,0,0,1-2.778.612,5.8,5.8,0,0,1-2.713-.59,4.159,4.159,0,0,1-1.711-1.577,4.237,4.237,0,0,1-.58-2.189,4.576,4.576,0,0,1,.57-2.254l2.471.687a4.282,4.282,0,0,0-.253,1.46A2.484,2.484,0,0,0,575.9,236a2.087,2.087,0,0,0,1.679.633,2.036,2.036,0,0,0,1.659-.676,2.764,2.764,0,0,0,.557-1.814,2.834,2.834,0,0,0-.569-1.895,2.118,2.118,0,0,0-1.711-.672h-.78l.36-2.068h.464a1.789,1.789,0,0,0,1.965-1.986,2.029,2.029,0,0,0-.506-1.446,1.905,1.905,0,0,0-1.458-.539,2.039,2.039,0,0,0-1.469.5,1.773,1.773,0,0,0-.517,1.341,2.8,2.8,0,0,0,.149.888l-2.576.549a3.886,3.886,0,0,1-.38-1.647,3.2,3.2,0,0,1,.6-1.891,3.992,3.992,0,0,1,1.689-1.341,6.076,6.076,0,0,1,2.5-.486,5.888,5.888,0,0,1,2.535.517,4.078,4.078,0,0,1,1.7,1.416,3.461,3.461,0,0,1,.6,1.974,3.07,3.07,0,0,1-.707,2.059,3.621,3.621,0,0,1-2.079,1.13,3.807,3.807,0,0,1,2.323,1.2" transform="translate(35.572 11.774)" fill="#a95939"/>
    <path id="Path_1420" data-name="Path 1420" d="M588.359,225.961a14.826,14.826,0,0,0,1.416,2.308q.7.979,1.107,1.691a7.9,7.9,0,0,1,.7,1.638,6.887,6.887,0,0,1,.286,2.052,5.323,5.323,0,0,1-.644,2.658,4.412,4.412,0,0,1-1.836,1.776,6.557,6.557,0,0,1-5.586.007,4.337,4.337,0,0,1-1.818-1.744,5.2,5.2,0,0,1-.632-2.6,6.478,6.478,0,0,1,.908-3.274l2.405.824a5.693,5.693,0,0,0-.338,1.1,6.085,6.085,0,0,0-.124,1.2,3.42,3.42,0,0,0,.579,2.1,2.121,2.121,0,0,0,1.807.77,2.074,2.074,0,0,0,1.774-.761,3.349,3.349,0,0,0,.57-2.048,5.473,5.473,0,0,0-.245-1.669,6.013,6.013,0,0,0-.591-1.331q-.349-.568-.96-1.416a19.019,19.019,0,0,1-1.108-1.657,7.9,7.9,0,0,1-.709-1.69,7.719,7.719,0,0,1-.3-2.227h2.851a5.5,5.5,0,0,0,.487,2.286" transform="translate(38.799 11.86)" fill="#a95939"/>
    <path id="Path_1421" data-name="Path 1421" d="M592.014,236.722a8.848,8.848,0,0,1-1.635-5.754,15.444,15.444,0,0,1,.44-3.881,20.494,20.494,0,0,1,1.248-3.413h2.724a24.725,24.725,0,0,0-1.16,3.59,16.458,16.458,0,0,0-.382,3.718,7.85,7.85,0,0,0,.93,4.255,2.932,2.932,0,0,0,2.6,1.425,2.58,2.58,0,0,0,1.933-.7A2.691,2.691,0,0,0,599.4,234a2.593,2.593,0,0,0-.624-1.85,2.452,2.452,0,0,0-1.87-.661h-1.055l.337-2.049h1.141a2.4,2.4,0,0,0,1.374-.324,1.036,1.036,0,0,0,.465-.889,1.436,1.436,0,0,0-.233-.845,5.268,5.268,0,0,0-.739-.78,10.036,10.036,0,0,1-.751-.759,2.773,2.773,0,0,1-.487-.856,3.786,3.786,0,0,1-.2-1.311h2.534a1.82,1.82,0,0,0,.347,1.03,6.96,6.96,0,0,0,.941,1.008,6.484,6.484,0,0,1,1.036,1.126,2.179,2.179,0,0,1,.357,1.254q0,1.869-2.618,2.36a3.656,3.656,0,0,1,2.185,1.163,3.524,3.524,0,0,1,.793,2.408,4.451,4.451,0,0,1-.665,2.4,4.551,4.551,0,0,1-1.912,1.679,6.645,6.645,0,0,1-2.956.613,5.837,5.837,0,0,1-4.784-1.989" transform="translate(42.123 11.859)" fill="#a95939"/>
    <path id="Path_1422" data-name="Path 1422" d="M601.939,225.087a4.84,4.84,0,0,1,4-1.659,4.9,4.9,0,0,1,3.918,1.628q1.4,1.629,1.4,5.1a22.958,22.958,0,0,1-.412,4.642,19.932,19.932,0,0,1-1.068,3.564h-2.722a24.151,24.151,0,0,0,.992-3.8,25.74,25.74,0,0,0,.338-4.419,8.119,8.119,0,0,0-.58-3.535,1.959,1.959,0,0,0-1.869-1.129,2.131,2.131,0,0,0-1.426.458,2.748,2.748,0,0,0-.792,1.48,11.835,11.835,0,0,0-.253,2.747,25.84,25.84,0,0,0,.337,4.428,21.087,21.087,0,0,0,1.035,3.769h-2.725a20.635,20.635,0,0,1-1.1-3.6,22.155,22.155,0,0,1-.423-4.61,7.973,7.973,0,0,1,1.341-5.064" transform="translate(45.884 11.769)" fill="#a95939"/>
    <path id="Path_1423" data-name="Path 1423" d="M619.813,224.4a3.7,3.7,0,0,1,.963,2.736v6.9a5.11,5.11,0,0,1-.581,2.454,4.085,4.085,0,0,1-1.732,1.694,6.536,6.536,0,0,1-5.491.011,4.258,4.258,0,0,1-1.752-1.629,4.548,4.548,0,0,1-.6-2.337,5.3,5.3,0,0,1,.7-2.636l2.449.75a4.443,4.443,0,0,0-.316,1.778,2.819,2.819,0,0,0,.549,1.833,2.078,2.078,0,0,0,1.711.674,2.039,2.039,0,0,0,1.71-.728,3.309,3.309,0,0,0,.57-2.079v-6.579c0-1.112-.4-1.669-1.183-1.669a1.165,1.165,0,0,0-.971.4,1.809,1.809,0,0,0-.317,1.141v2.534H612.9v-2.7q0-1.182-.951-1.182a4.512,4.512,0,0,0-.549.042c-.253.027-.443.042-.569.042a2.269,2.269,0,0,1-1.246-.338l.443-2.027a1.993,1.993,0,0,0,.739.126,3.1,3.1,0,0,0,.611-.063c.465-.042.733-.063.8-.063a2.094,2.094,0,0,1,1.3.443,1.048,1.048,0,1,0,1.932-.022,3.535,3.535,0,0,1,1.837-.464,3.462,3.462,0,0,1,2.565.96" transform="translate(49.191 11.774)" fill="#a95939"/>
    <path id="Path_1424" data-name="Path 1424" d="M619.719,235.581a14.843,14.843,0,0,1-.348-3.41,12.089,12.089,0,0,1,.506-3.78,5.015,5.015,0,0,1,1.867-2.513,9.122,9.122,0,0,1,3.855-1.415,19.186,19.186,0,0,0,4.35-1.036l.951,1.752a10.6,10.6,0,0,1-4.519,1.312,8.123,8.123,0,0,0-3.01.821,3.154,3.154,0,0,0-1.4,1.584,2.866,2.866,0,0,1,2.2-.908,2.922,2.922,0,0,1,1.848.6,2.98,2.98,0,0,1,1.023,1.806,2.881,2.881,0,0,1,1.141-1.806,3.833,3.833,0,0,1,2.237-.6,4.128,4.128,0,0,1,3.107,1.226,5.1,5.1,0,0,1,1.182,3.674,10.832,10.832,0,0,1-.348,2.84,16.01,16.01,0,0,1-.985,2.629h-2.722a21.051,21.051,0,0,0,.9-2.8,11.426,11.426,0,0,0,.285-2.594q0-2.922-1.88-2.922a1.468,1.468,0,0,0-1.151.483,2.257,2.257,0,0,0-.432,1.534v3.305h-2.661v-3.305a2.186,2.186,0,0,0-.454-1.534,1.51,1.51,0,0,0-1.151-.483,1.584,1.584,0,0,0-1.416.7,4.058,4.058,0,0,0-.464,2.2,11.433,11.433,0,0,0,.285,2.614,21.2,21.2,0,0,0,.9,2.8H620.68a14.283,14.283,0,0,1-.962-2.777" transform="translate(52.793 11.768)" fill="#a95939"/>
    <path id="Path_1425" data-name="Path 1425" d="M633.4,225.087a4.842,4.842,0,0,1,4-1.659,4.9,4.9,0,0,1,3.917,1.628q1.406,1.629,1.4,5.1a23.082,23.082,0,0,1-.41,4.642,20.088,20.088,0,0,1-1.068,3.564h-2.724a24.15,24.15,0,0,0,.993-3.8,25.776,25.776,0,0,0,.337-4.419,8.115,8.115,0,0,0-.58-3.535,1.955,1.955,0,0,0-1.867-1.129,2.127,2.127,0,0,0-1.426.458,2.74,2.74,0,0,0-.792,1.48,11.815,11.815,0,0,0-.254,2.747,25.861,25.861,0,0,0,.336,4.428,21.093,21.093,0,0,0,1.036,3.769h-2.724a20.634,20.634,0,0,1-1.1-3.6,22.16,22.16,0,0,1-.423-4.61,7.983,7.983,0,0,1,1.341-5.064" transform="translate(57.463 11.769)" fill="#a95939"/>
    <path id="Path_1426" data-name="Path 1426" d="M542.189,254.876a5.071,5.071,0,0,1-1.32-3.722v-9.974h2.788v9.966a3.74,3.74,0,0,0,.58,2.219,2.081,2.081,0,0,0,1.806.8,2.024,2.024,0,0,0,1.7-.744,3.116,3.116,0,0,0,.58-1.975,4.283,4.283,0,0,0-.222-1.488,9.622,9.622,0,0,0-.706-1.447,8.094,8.094,0,0,1-.731-1.488,5.129,5.129,0,0,1-.241-1.684h2.766a2.888,2.888,0,0,0,.231,1.077,12.455,12.455,0,0,0,.657,1.227,11.914,11.914,0,0,1,.885,1.78,5.519,5.519,0,0,1,.3,1.952,4.91,4.91,0,0,1-.622,2.462,4.476,4.476,0,0,1-1.807,1.739,5.831,5.831,0,0,1-2.807.639,5.145,5.145,0,0,1-3.835-1.339" transform="translate(23.902 18.302)" fill="#a95939"/>
    <path id="Path_1427" data-name="Path 1427" d="M558.68,248.553a3.975,3.975,0,0,1,.941,2.774,5.211,5.211,0,0,1-.592,2.5,4.282,4.282,0,0,1-1.751,1.747,5.675,5.675,0,0,1-2.788.644,5.743,5.743,0,0,1-2.694-.591,4.146,4.146,0,0,1-1.722-1.607,4.466,4.466,0,0,1-.591-2.283,5.2,5.2,0,0,1,.654-2.509l2.45.728a4.435,4.435,0,0,0-.3,1.673,2.7,2.7,0,0,0,.54,1.759,2.008,2.008,0,0,0,1.658.665,1.879,1.879,0,0,0,1.635-.751,3.457,3.457,0,0,0,.539-2.059,3.266,3.266,0,0,0-.643-2.159,2.259,2.259,0,0,0-1.826-.765h-.7l.338-2.112h.148a1.85,1.85,0,0,0,2.093-2.09,6.2,6.2,0,0,0-.8-2.936h2.6a4.986,4.986,0,0,1,1.014,2.893q0,2.471-2.744,3.189a4.179,4.179,0,0,1,2.543,1.291" transform="translate(27.072 18.302)" fill="#a95939"/>
    <path id="Path_1428" data-name="Path 1428" d="M558.752,252.236a20.6,20.6,0,0,1-.454-4.642q0-3.491,1.2-5.077a4.092,4.092,0,0,1,3.464-1.586,3.153,3.153,0,0,1,3.337,2.56,3.219,3.219,0,0,1,3.443-2.56,3.955,3.955,0,0,1,3.357,1.606,8.485,8.485,0,0,1,1.2,5.056,20.854,20.854,0,0,1-.454,4.673,19.76,19.76,0,0,1-1.193,3.6h-2.746a21.451,21.451,0,0,0,1.141-3.784,22.589,22.589,0,0,0,.38-4.421,9.108,9.108,0,0,0-.508-3.657,1.609,1.609,0,0,0-1.5-1.021,1.524,1.524,0,0,0-1.279.587,2.923,2.923,0,0,0-.454,1.8v6.123h-2.788v-6.138q0-2.372-1.647-2.374a1.684,1.684,0,0,0-1.235.447,2.783,2.783,0,0,0-.654,1.458,14.853,14.853,0,0,0-.2,2.778,22.771,22.771,0,0,0,.38,4.45,19.407,19.407,0,0,0,1.161,3.748h-2.766a21.176,21.176,0,0,1-1.194-3.627" transform="translate(30.316 18.211)" fill="#a95939"/>
    <path id="Path_1429" data-name="Path 1429" d="M579.037,253.793a10.536,10.536,0,0,0-4.688,1.1l-.762-2.049a8.671,8.671,0,0,1,3.083-.575,17.659,17.659,0,0,1-2.683-1.375,6.132,6.132,0,0,1-1.888-1.956,5.669,5.669,0,0,1-.772-3.056,5.3,5.3,0,0,1,1.141-3.711,3.9,3.9,0,0,1,3.019-1.237,3.7,3.7,0,0,1,2.238.6,2.967,2.967,0,0,1,1.1,1.852,2.912,2.912,0,0,1,.962-1.844,3.439,3.439,0,0,1,3.907-.008,3.1,3.1,0,0,1,.982,1.852,2.786,2.786,0,0,1,1.034-1.833,3.47,3.47,0,0,1,2.155-.624,4.1,4.1,0,0,1,3.146,1.268,5.45,5.45,0,0,1,1.183,3.83,8.369,8.369,0,0,1-.424,2.72,10.146,10.146,0,0,1-1.265,2.465l-2.387-1.129a8,8,0,0,0,.845-1.933,8.111,8.111,0,0,0,.253-2.123,4.766,4.766,0,0,0-.423-2.389,1.4,1.4,0,0,0-1.267-.662,1.374,1.374,0,0,0-1.141.5,2.448,2.448,0,0,0-.4,1.535v3.263H583.3v-3.263a2.449,2.449,0,0,0-.4-1.535,1.356,1.356,0,0,0-1.119-.5,1.415,1.415,0,0,0-1.161.514,2.359,2.359,0,0,0-.424,1.524v3.263h-2.681v-3.263a2.36,2.36,0,0,0-.412-1.576,1.458,1.458,0,0,0-1.151-.462q-1.691,0-1.689,2.793a4.367,4.367,0,0,0,1.521,3.6,11.022,11.022,0,0,0,4.181,1.941,23.647,23.647,0,0,1,3.1,1.036,6.212,6.212,0,0,1,2.037,1.375,4.156,4.156,0,0,1,1.068,2.135h-2.958q-.887-2.07-4.181-2.07" transform="translate(35.112 18.211)" fill="#a95939"/>
    <path id="Path_1430" data-name="Path 1430" d="M594.456,243.465a15.151,15.151,0,0,0,1.416,2.308q.7.979,1.108,1.691a7.976,7.976,0,0,1,.7,1.638,6.949,6.949,0,0,1,.286,2.052,5.322,5.322,0,0,1-.644,2.658,4.417,4.417,0,0,1-1.837,1.777,6.57,6.57,0,0,1-5.586.007,4.35,4.35,0,0,1-1.817-1.744,5.207,5.207,0,0,1-.633-2.6,6.5,6.5,0,0,1,.908-3.274l2.406.824a5.867,5.867,0,0,0-.338,1.1,5.993,5.993,0,0,0-.126,1.2,3.42,3.42,0,0,0,.58,2.1,2.118,2.118,0,0,0,1.806.77,2.072,2.072,0,0,0,1.774-.761,3.335,3.335,0,0,0,.57-2.048,5.518,5.518,0,0,0-.242-1.669,6.164,6.164,0,0,0-.592-1.331q-.349-.568-.96-1.415a19.314,19.314,0,0,1-1.109-1.658,7.814,7.814,0,0,1-.706-1.69,7.674,7.674,0,0,1-.3-2.227h2.851a5.541,5.541,0,0,0,.486,2.286" transform="translate(41.043 18.302)" fill="#a95939"/>
  </g>
</svg>
